<svg width="84" height="91" viewBox="0 0 84 91" fill="none" xmlns="http://www.w3.org/2000/svg">
<g filter="url(#filter0_d_7_2)">
<path d="M58.4272 42.9049C57.3686 39.0673 55.0801 35.6831 51.913 33.2713C48.7459 30.8595 44.8749 29.5535 40.894 29.5535C36.9131 29.5535 33.0422 30.8595 29.8751 33.2713C26.7079 35.6831 24.4195 39.0673 23.3609 42.9049L20.8382 52.0499C20.3852 53.6919 20.3176 55.4163 20.6407 57.0886C20.9638 58.761 21.6687 60.3362 22.7006 61.6913C23.7326 63.0464 25.0635 64.1449 26.5898 64.9011C28.116 65.6572 29.7963 66.0507 31.4996 66.0507H50.2884C51.9917 66.0507 53.672 65.6572 55.1983 64.9011C56.7245 64.1449 58.0555 63.0464 59.0874 61.6913C60.1193 60.3362 60.8243 58.761 61.1474 57.0886C61.4704 55.4163 61.4028 53.6919 60.9499 52.0499L58.4272 42.9049ZM55.5679 59.0106C54.9515 59.8267 54.1535 60.488 53.2371 60.9421C52.3207 61.3962 51.3112 61.6306 50.2884 61.6268H31.4996C30.4776 61.6268 29.4694 61.3908 28.5537 60.9371C27.6379 60.4834 26.8393 59.8243 26.2201 59.0112C25.601 58.1981 25.178 57.253 24.9842 56.2495C24.7903 55.2461 24.8309 54.2114 25.1027 53.2262L27.6254 44.0813C28.4265 41.1772 30.1583 38.6161 32.5552 36.7909C34.952 34.9658 37.8814 33.9774 40.894 33.9774C43.9067 33.9774 46.8361 34.9658 49.2329 36.7909C51.6297 38.6161 53.3615 41.1772 54.1627 44.0813L56.6854 53.2262C56.9611 54.211 57.0037 55.2465 56.8097 56.2506C56.6157 57.2547 56.1906 58.1999 55.5679 59.0112V59.0106Z" fill="black"/>
<path d="M25.6988 32.6378C26.0837 30.2323 25.5733 27.6572 24.261 25.385C22.9488 23.1128 20.9735 21.3832 18.6984 20.5137C16.262 19.5832 13.7768 19.7314 11.6984 20.9308C7.56665 23.3164 6.47934 29.1959 9.2751 34.0373C10.5869 36.3095 12.5623 38.0395 14.8375 38.9086C15.8453 39.3013 16.9166 39.5061 17.9982 39.5128C19.3457 39.5177 20.6705 39.1652 21.8374 38.4913C23.9146 37.2918 25.286 35.213 25.6988 32.6378ZM21.3302 31.9386C21.1325 33.173 20.527 34.1395 19.6252 34.6601C18.7234 35.1807 17.5837 35.2217 16.4155 34.7758C15.0866 34.2683 13.9112 33.2204 13.1058 31.8254C11.5574 29.1434 11.9254 25.9084 13.9104 24.7621C14.4094 24.4789 14.9745 24.333 15.5482 24.3393C16.0863 24.3449 16.619 24.4487 17.1198 24.6458C18.4487 25.1536 19.6241 26.2013 20.4295 27.5964C21.235 28.9914 21.5547 30.5339 21.3302 31.9386ZM26.178 23.473C27.7487 24.7287 29.5425 25.3826 31.3564 25.3825C31.8998 25.3823 32.4415 25.3239 32.9724 25.2082C37.6345 24.1947 40.4612 18.9258 39.2737 13.463C38.7165 10.8991 37.362 8.64967 35.4597 7.12882C33.4227 5.50028 31.0097 4.88383 28.6653 5.39369C24.0034 6.40704 21.1766 11.6759 22.364 17.1387C22.9213 19.7028 24.2758 21.9522 26.178 23.473V23.473ZM29.6048 9.71666C29.8198 9.67031 30.0391 9.64714 30.259 9.64754C31.0813 9.64754 31.9271 9.96924 32.6973 10.585C33.8084 11.4732 34.6087 12.8293 34.9507 14.4035C35.6088 17.4304 34.2725 20.399 32.0327 20.8859C31.0151 21.1071 29.9169 20.7991 28.9406 20.0184C27.8295 19.13 27.0292 17.774 26.6871 16.1999C26.0289 13.1721 27.3652 10.2036 29.6048 9.71666ZM70.0858 20.9308C68.0082 19.7314 65.5219 19.5832 63.0858 20.5137C60.8107 21.3829 58.8353 23.1128 57.5235 25.385C56.2117 27.6572 55.7011 30.2329 56.0857 32.6378C56.498 35.213 57.8691 37.2918 59.9471 38.4913C61.114 39.1653 62.4388 39.5178 63.7863 39.5128C64.868 39.5061 65.9392 39.3013 66.9471 38.9086C69.2222 38.0395 71.1976 36.3095 72.5094 34.0373C75.3049 29.1959 74.2176 23.3164 70.0858 20.9308ZM68.6785 31.8254C67.873 33.2204 66.6977 34.2683 65.3687 34.7758C64.2011 35.2221 63.0611 35.181 62.1593 34.6601C61.2575 34.1392 60.6524 33.173 60.4543 31.9386C60.2295 30.5339 60.5492 28.992 61.3547 27.5976C62.1603 26.2033 63.3355 25.1548 64.6645 24.647C65.1653 24.4498 65.6979 24.3457 66.2361 24.34C66.8098 24.3337 67.3749 24.4796 67.8739 24.7627C69.8588 25.9081 70.2272 29.1427 68.6785 31.8254V31.8254ZM48.8119 25.2082C49.3427 25.3239 49.8845 25.3823 50.4278 25.3825C52.2416 25.3825 54.0361 24.7287 55.6063 23.473C57.5084 21.9523 58.863 19.7028 59.4202 17.1389C60.6076 11.676 57.7809 6.40717 53.1189 5.39383C50.7747 4.88425 48.3616 5.50027 46.3245 7.12896C44.4223 8.64967 43.0677 10.8992 42.5106 13.463C41.323 18.9258 44.1498 24.1947 48.8119 25.2082V25.2082ZM46.8336 14.4028C47.1756 12.8286 47.9759 11.472 49.087 10.5843C49.8573 9.96855 50.7029 9.64685 51.5252 9.64685C51.7451 9.64645 51.9645 9.66962 52.1794 9.71597C54.419 10.2029 55.7553 13.1721 55.0974 16.1984C54.7551 17.7726 53.9548 19.1292 52.844 20.017C51.8678 20.7976 50.7703 21.1056 49.7518 20.8845C47.5118 20.3983 46.1755 17.4293 46.8336 14.4028Z" fill="black"/>
</g>
<g filter="url(#filter1_i_7_2)">
<path d="M1.42513 87.0527H3.21238C3.37164 87.0527 3.49551 86.9289 3.49551 86.7519V83.4782H6.3268C8.7511 83.4782 10.733 81.4963 10.733 79.072C10.733 76.6477 8.7511 74.6658 6.3268 74.6658H1.42513C1.26587 74.6658 1.142 74.7897 1.142 74.9667V86.7519C1.142 86.9289 1.26587 87.0527 1.42513 87.0527ZM3.49551 81.107V77.0193H6.3268C7.45932 77.0193 8.37949 77.9395 8.37949 79.072C8.37949 80.2045 7.45932 81.107 6.3268 81.107H3.49551ZM18.3006 84.6992H14.0714V82.0272H17.8936C18.0529 82.0272 18.1768 81.9033 18.1768 81.7441V79.9745C18.1768 79.8152 18.0529 79.6914 17.8936 79.6914H14.0714V77.0193H18.3006C18.4776 77.0193 18.6015 76.8778 18.6015 76.7185V74.949C18.6015 74.7897 18.4776 74.6658 18.3006 74.6658H12.0187C11.8594 74.6658 11.7179 74.7897 11.7179 74.949V86.7519C11.7179 86.9289 11.8594 87.0527 12.0187 87.0527H18.3006C18.4776 87.0527 18.6015 86.9289 18.6015 86.7519V85C18.6015 84.8408 18.4776 84.6992 18.3006 84.6992ZM25.365 86.7519V77.0193H28.4264C28.6033 77.0193 28.7272 76.8778 28.7272 76.7185V74.9667C28.7272 74.7897 28.6033 74.6658 28.4264 74.6658H19.9502C19.7909 74.6658 19.6671 74.7897 19.6671 74.9667V76.7185C19.6671 76.8778 19.7909 77.0193 19.9502 77.0193H23.0292V86.7519C23.0292 86.9289 23.1531 87.0527 23.3123 87.0527H25.0819C25.2412 87.0527 25.365 86.9289 25.365 86.7519ZM35.0384 77.4617L36.5956 76.4354C36.6664 76.3823 36.7195 76.3115 36.7195 76.223C36.7372 76.1169 36.7018 76.0461 36.6487 75.9753C35.8701 75.1259 34.7199 74.6304 33.5874 74.4889C33.0742 74.4358 32.5434 74.4535 32.0125 74.542C31.4816 74.6481 30.9684 74.8428 30.5084 75.1259C29.6236 75.7276 29.1104 76.577 28.9865 77.6387C28.668 80.0984 30.3314 80.9655 32.2425 81.9387C32.8442 82.2572 34.2421 82.8766 34.2244 83.7083C34.2244 83.9383 34.1713 84.1684 34.0121 84.3453C33.782 84.593 33.4104 84.7169 33.0919 84.77C32.6141 84.8585 32.0833 84.8054 31.5878 84.6815C31.0569 84.54 30.5261 84.2745 30.1014 83.8852C30.0129 83.7967 29.8536 83.7791 29.7298 83.8498L28.1725 84.8408C28.0841 84.8762 28.0487 84.9647 28.031 85.0531C28.0133 85.1416 28.0487 85.2301 28.1018 85.3009C28.845 86.1503 29.889 86.7519 30.9861 87.035C31.8001 87.2474 32.6849 87.3182 33.5166 87.1589C34.366 87.0173 35.18 86.6634 35.7816 86.0087C36.3656 85.3893 36.631 84.593 36.6487 83.7437C36.6841 81.4963 35.0915 80.6823 33.3397 79.7622C32.7026 79.4436 31.287 78.8243 31.3931 77.9395C31.4285 77.621 31.5701 77.3379 31.8355 77.1609C32.0479 77.037 32.2602 76.9663 32.4726 76.9309C32.738 76.8778 33.0211 76.8778 33.3043 76.9132C33.7997 76.9663 34.2952 77.1432 34.6845 77.444C34.7907 77.5325 34.9323 77.5502 35.0384 77.4617ZM49.9342 87.0527H51.7038C51.8808 87.0527 52.0046 86.8935 51.9869 86.7165L50.4297 74.9667C50.412 74.8251 50.2882 74.7189 50.1466 74.7012L48.1824 74.6658C48.0408 74.6658 47.9346 74.7543 47.8816 74.8782L44.8733 84.363L41.8651 74.8782C41.8297 74.7543 41.7235 74.6658 41.5819 74.6658L39.6177 74.7012C39.4762 74.7012 39.3523 74.8251 39.3346 74.9667L37.7774 86.7165C37.742 86.8935 37.8836 87.0527 38.0605 87.0527H39.8301C39.9893 87.0527 40.0955 86.9466 40.1309 86.805L41.0334 79.9745L43.2099 86.8404C43.2453 86.9643 43.3515 87.0527 43.493 87.0527H46.2713C46.4128 87.0527 46.519 86.9643 46.5544 86.8404L48.7309 79.9745L49.6334 86.805C49.6511 86.9466 49.775 87.0527 49.9342 87.0527ZM55.9734 85.2655H60.1142L60.6097 86.8404C60.645 86.9643 60.7689 87.0527 60.8928 87.0527H62.7331C62.8393 87.0527 62.9101 87.0173 62.9632 86.9289C63.0339 86.8581 63.0516 86.7696 63.0162 86.6634L59.3002 74.8782C59.2471 74.7543 59.1409 74.6658 59.017 74.6658H57.0705C56.9467 74.6658 56.8405 74.7543 56.7874 74.8782L53.0713 86.6634C53.0359 86.7696 53.0536 86.8581 53.1244 86.9289C53.1775 87.0173 53.266 87.0527 53.3545 87.0527H55.1948C55.3364 87.0527 55.4425 86.9643 55.4779 86.8404L55.9734 85.2655ZM56.7166 82.912L58.0438 78.7004L59.371 82.912H56.7166ZM64.3792 87.0527H66.1665C66.3257 87.0527 66.4496 86.9289 66.4496 86.7519V83.4782H68.8385L70.8558 86.9112C70.9266 86.9996 71.0151 87.0527 71.1212 87.0527H73.1739C73.2801 87.0527 73.3686 86.9996 73.4217 86.8935C73.4748 86.805 73.4748 86.6988 73.4217 86.6103L71.2982 83.0004C72.7669 82.1157 73.6871 80.8416 73.6871 79.072C73.6871 76.6477 71.7052 74.6658 69.2809 74.6658H64.3792C64.22 74.6658 64.0961 74.7897 64.0961 74.9667V86.7519C64.0961 86.9289 64.22 87.0527 64.3792 87.0527ZM66.4496 81.107V77.0193H69.2809C70.4134 77.0193 71.3159 77.9395 71.3159 79.072C71.3159 80.2045 70.4134 81.107 69.2809 81.107H66.4496ZM79.3849 86.7519V77.0193H82.4463C82.6232 77.0193 82.7471 76.8778 82.7471 76.7185V74.9667C82.7471 74.7897 82.6232 74.6658 82.4463 74.6658H73.9701C73.8108 74.6658 73.687 74.7897 73.687 74.9667V76.7185C73.687 76.8778 73.8108 77.0193 73.9701 77.0193H77.0491V86.7519C77.0491 86.9289 77.173 87.0527 77.3323 87.0527H79.1018C79.2611 87.0527 79.3849 86.9289 79.3849 86.7519Z" fill="black"/>
</g>
<defs>
<filter id="filter0_d_7_2" x="1.50189" y="0.79834" width="78.7823" height="78.7822" filterUnits="userSpaceOnUse" color-interpolation-filters="sRGB">
<feFlood flood-opacity="0" result="BackgroundImageFix"/>
<feColorMatrix in="SourceAlpha" type="matrix" values="0 0 0 0 0 0 0 0 0 0 0 0 0 0 0 0 0 0 127 0" result="hardAlpha"/>
<feOffset dy="4"/>
<feGaussianBlur stdDeviation="2"/>
<feComposite in2="hardAlpha" operator="out"/>
<feColorMatrix type="matrix" values="0 0 0 0 0 0 0 0 0 0 0 0 0 0 0 0 0 0 0.25 0"/>
<feBlend mode="normal" in2="BackgroundImageFix" result="effect1_dropShadow_7_2"/>
<feBlend mode="normal" in="SourceGraphic" in2="effect1_dropShadow_7_2" result="shape"/>
</filter>
<filter id="filter1_i_7_2" x="1.14197" y="74.4358" width="81.6051" height="16.8823" filterUnits="userSpaceOnUse" color-interpolation-filters="sRGB">
<feFlood flood-opacity="0" result="BackgroundImageFix"/>
<feBlend mode="normal" in="SourceGraphic" in2="BackgroundImageFix" result="shape"/>
<feColorMatrix in="SourceAlpha" type="matrix" values="0 0 0 0 0 0 0 0 0 0 0 0 0 0 0 0 0 0 127 0" result="hardAlpha"/>
<feOffset dy="4"/>
<feGaussianBlur stdDeviation="2"/>
<feComposite in2="hardAlpha" operator="arithmetic" k2="-1" k3="1"/>
<feColorMatrix type="matrix" values="0 0 0 0 0 0 0 0 0 0 0 0 0 0 0 0 0 0 0.25 0"/>
<feBlend mode="normal" in2="shape" result="effect1_innerShadow_7_2"/>
</filter>
</defs>
</svg>
